<?xml version="1.0" standalone="no"?>
<!DOCTYPE svg PUBLIC "-//W3C//DTD SVG 20010904//EN"
 "http://www.w3.org/TR/2001/REC-SVG-20010904/DTD/svg10.dtd">
<svg version="1.0" xmlns="http://www.w3.org/2000/svg"
 width="308.000000pt" height="116.000000pt" viewBox="0 0 308.000000 116.000000"
 preserveAspectRatio="xMidYMid meet">

<g transform="translate(0.000000,116.000000) scale(0.100000,-0.100000)"
fill="#000000" stroke="none">
<path d="M1412 1085 c-34 -29 -49 -74 -33 -103 13 -24 113 -82 141 -82 27 0
25 18 -6 42 -20 16 -24 28 -22 57 3 31 6 36 28 35 14 -1 35 -5 48 -9 33 -11
29 20 -7 56 -40 39 -105 41 -149 4z"/>
<path d="M1344 930 c-51 -20 -128 -148 -170 -283 -18 -57 -18 -57 4 -87 l23
-30 -116 0 c-108 0 -115 -1 -115 -20 0 -19 7 -20 178 -20 110 0 182 4 188 10
17 17 64 -6 64 -31 0 -12 -12 -59 -26 -105 -24 -80 -26 -84 -55 -84 -31 0 -69
30 -69 55 0 9 11 38 25 66 14 27 23 54 20 59 -4 6 -71 10 -157 10 -143 0 -150
-1 -155 -21 -3 -11 -25 -29 -51 -41 -25 -12 -60 -37 -78 -55 -33 -33 -79 -111
-71 -119 2 -3 173 -5 378 -4 206 0 379 -4 386 -8 6 -4 17 -20 22 -36 l11 -28
68 38 c37 20 99 54 139 76 96 52 102 61 63 90 -17 13 -52 30 -77 38 -46 15
-47 16 -59 75 -7 33 -22 82 -33 108 -26 59 -26 67 -3 67 29 0 42 21 42 66 0
41 -1 42 -37 46 -21 3 -50 -2 -66 -10 -23 -11 -42 -13 -86 -6 -60 10 -58 7
-82 103 -11 44 -48 92 -71 90 -7 0 -22 -4 -34 -9z m79 -195 c18 -21 34 -26 94
-31 46 -4 78 -12 85 -22 9 -11 12 -51 11 -135 -2 -107 -5 -126 -28 -174 -17
-33 -41 -63 -63 -78 -40 -28 -92 -34 -92 -11 0 8 20 67 45 132 28 76 41 122
35 129 -5 6 -45 26 -90 44 -44 19 -83 38 -87 43 -7 12 47 128 59 128 5 0 19
-11 31 -25z m-512 -417 c0 -10 2 -10 6 0 7 19 23 14 23 -7 0 -30 -11 -51 -26
-51 -8 0 -14 9 -14 19 0 11 -3 26 -6 35 -3 9 -1 16 5 16 6 0 11 -6 12 -12z
m79 -25 c0 -26 -4 -33 -20 -33 -16 0 -20 7 -20 34 0 29 4 34 20 33 16 -1 20
-8 20 -34z m95 2 c0 -28 -2 -30 -40 -30 -38 0 -40 2 -43 32 -3 33 -3 33 39 30
40 -2 43 -4 44 -32z"/>
<path d="M1020 298 c0 -8 7 -15 15 -15 18 0 15 19 -3 25 -7 2 -12 -3 -12 -10z"/>
<path d="M871 822 c-23 -108 -43 -243 -37 -257 4 -12 31 -15 149 -15 104 0
147 4 154 13 12 16 55 285 48 297 -4 6 -71 10 -155 10 l-148 0 -11 -48z"/>
<path d="M1607 853 c-14 -14 -6 -40 16 -50 20 -9 23 -8 24 10 3 32 -23 58 -40
40z"/>
<path d="M683 793 c32 -2 81 -2 110 0 29 2 3 3 -58 3 -60 0 -84 -1 -52 -3z"/>
<path d="M628 713 c34 -2 90 -2 125 0 34 2 6 3 -63 3 -69 0 -97 -1 -62 -3z"/>
<path d="M2130 545 l0 -126 58 3 c50 3 57 6 60 25 3 18 -2 22 -30 25 l-33 3 0
95 0 95 -27 3 -28 3 0 -126z"/>
<path d="M2382 663 c-16 -3 -21 -10 -18 -21 2 -9 10 -51 16 -92 21 -142 16
-131 68 -128 l47 3 21 118 c19 110 19 117 3 117 -10 0 -24 3 -32 6 -12 4 -16
-9 -22 -64 -10 -97 -21 -107 -30 -26 -7 72 -13 95 -24 93 -3 -1 -16 -4 -29 -6z"/>
<path d="M1814 647 c-2 -7 -3 -60 -2 -118 l3 -104 51 -3 c73 -4 87 14 87 118
0 101 -13 120 -85 120 -31 0 -50 -5 -54 -13z m86 -97 c0 -44 -8 -70 -21 -70
-5 0 -9 30 -9 66 0 58 2 65 15 54 9 -7 15 -29 15 -50z"/>
<path d="M1990 540 l0 -120 55 0 c52 0 55 1 55 25 0 20 -5 25 -25 25 -33 0
-35 37 -2 42 14 2 23 11 25 26 3 18 -1 22 -22 22 -21 0 -26 5 -26 25 0 20 5
25 25 25 20 0 25 5 25 25 0 24 -3 25 -55 25 l-55 0 0 -120z"/>
<path d="M2280 640 c0 -15 7 -20 25 -20 18 0 25 5 25 20 0 15 -7 20 -25 20
-18 0 -25 -5 -25 -20z"/>
<path d="M2560 540 l0 -120 54 0 c30 0 57 4 60 9 11 18 -6 41 -30 41 -32 0
-34 37 -1 42 14 2 23 11 25 26 3 18 -1 22 -22 22 -21 0 -26 5 -26 25 0 20 5
25 25 25 14 0 25 4 25 9 0 5 3 16 6 25 5 14 -3 16 -55 16 l-61 0 0 -120z"/>
<path d="M2707 593 c-4 -38 -7 -89 -7 -115 0 -47 1 -48 30 -48 29 0 30 2 30
45 0 25 4 45 9 45 10 0 21 -34 21 -66 0 -15 8 -23 25 -26 24 -5 25 -3 25 39 0
24 -5 53 -10 63 -7 13 -7 21 0 25 13 8 13 61 0 86 -9 15 -22 19 -64 19 l-53 0
-6 -67z m73 -8 c0 -14 -4 -25 -10 -25 -5 0 -10 11 -10 25 0 14 5 25 10 25 6 0
10 -11 10 -25z"/>
<path d="M2886 583 c13 -43 24 -97 24 -121 0 -41 1 -43 28 -40 25 3 27 6 24
44 -2 26 6 66 22 109 15 37 26 71 26 76 0 5 -13 9 -30 9 -24 0 -30 -4 -30 -22
0 -13 -5 -30 -10 -38 -8 -12 -10 -11 -10 7 0 38 -11 53 -40 53 l-28 0 24 -77z"/>
<path d="M86 529 c-8 -119 -4 -133 35 -127 20 3 23 9 23 48 1 39 4 45 24 48
30 5 32 52 2 52 -13 0 -20 7 -20 20 0 13 7 20 19 20 17 0 31 18 31 41 0 5 -24
9 -54 9 l-53 0 -7 -111z"/>
<path d="M242 624 c-20 -14 -22 -24 -22 -104 0 -80 2 -90 22 -104 29 -20 62
-20 93 0 23 15 25 22 25 104 0 71 -3 90 -18 103 -23 21 -71 22 -100 1z m66
-59 c5 -38 -7 -115 -17 -115 -9 0 -22 130 -14 143 10 16 28 0 31 -28z"/>
<path d="M418 626 c-15 -11 -18 -29 -18 -106 0 -77 3 -95 18 -106 26 -20 66
-17 96 7 27 22 28 22 20 108 -5 61 -11 89 -23 98 -21 16 -72 16 -93 -1z m62
-101 c0 -60 -3 -75 -15 -75 -12 0 -15 15 -15 75 0 60 3 75 15 75 12 0 15 -15
15 -75z"/>
<path d="M570 522 l0 -119 58 5 c31 2 63 9 70 14 16 14 16 155 -1 188 -11 22
-20 25 -70 28 l-57 3 0 -119z m80 8 c0 -33 0 -63 1 -67 0 -4 -4 -9 -10 -11 -7
-2 -11 21 -11 67 0 41 4 71 10 71 6 0 10 -27 10 -60z"/>
<path d="M738 633 c12 -2 30 -2 40 0 9 3 -1 5 -23 4 -22 0 -30 -2 -17 -4z"/>
<path d="M2280 510 l0 -90 31 0 32 0 -6 68 c-4 37 -7 77 -7 90 0 17 -6 22 -25
22 -25 0 -25 -1 -25 -90z"/>
<path d="M773 443 c32 -2 81 -2 110 0 29 2 3 3 -58 3 -60 0 -84 -1 -52 -3z"/>
<path d="M743 363 c15 -2 39 -2 55 0 15 2 2 4 -28 4 -30 0 -43 -2 -27 -4z"/>
<path d="M1837 269 c-13 -8 -15 -14 -7 -29 20 -38 12 -80 -24 -116 -19 -19
-43 -34 -55 -34 -22 0 -71 20 -71 29 -1 21 -31 42 -49 36 -31 -9 -27 -51 8
-85 57 -58 129 -52 196 15 49 48 64 95 49 153 -10 39 -20 46 -47 31z"/>
<path d="M563 263 c37 -2 97 -2 135 0 37 2 6 3 -68 3 -74 0 -105 -1 -67 -3z"/>
<path d="M887 193 c-4 -3 -7 -25 -7 -48 0 -163 284 -144 302 20 2 25 -1 31
-20 33 -22 3 -25 -1 -36 -51 -8 -33 -58 -67 -99 -67 -40 0 -87 49 -87 89 0 26
-4 31 -23 31 -13 0 -27 -3 -30 -7z"/>
</g>
</svg>
