<?xml version="1.0" standalone="no"?>
<!DOCTYPE svg PUBLIC "-//W3C//DTD SVG 20010904//EN"
 "http://www.w3.org/TR/2001/REC-SVG-20010904/DTD/svg10.dtd">
<svg version="1.0" xmlns="http://www.w3.org/2000/svg"
 width="300.000000pt" height="234.000000pt" viewBox="0 0 300.000000 234.000000"
 preserveAspectRatio="xMidYMid meet">

<g transform="translate(0.000000,234.000000) scale(0.100000,-0.100000)"
fill="#000000" stroke="none">
<path d="M2054 2329 c-56 -16 -126 -71 -152 -119 -30 -56 -28 -156 3 -190 23
-25 265 -160 287 -160 17 0 68 37 68 50 0 4 -30 32 -66 60 l-67 52 6 58 c12
106 20 111 124 69 67 -26 78 -28 91 -16 12 12 12 21 2 52 -37 111 -176 179
-296 144z"/>
<path d="M1794 1930 c-108 -61 -233 -278 -331 -569 -46 -138 -43 -180 17 -233
l43 -38 -240 0 c-220 0 -241 -2 -256 -18 -23 -26 -21 -58 5 -76 19 -14 73 -16
384 -16 l363 0 19 24 c19 25 20 25 73 11 49 -13 79 -35 79 -58 0 -13 -111
-369 -122 -389 -11 -22 -74 -24 -121 -4 -91 38 -96 104 -20 255 28 57 49 110
46 117 -4 11 -66 14 -337 14 -350 0 -356 -1 -356 -45 0 -28 -23 -47 -81 -69
-124 -45 -236 -152 -305 -290 -28 -57 -43 -98 -39 -109 7 -16 59 -17 825 -17
914 0 842 6 854 -74 13 -83 5 -85 348 105 171 96 316 182 322 191 21 34 -87
123 -192 159 -30 10 -65 19 -77 19 -32 0 -52 28 -60 85 -10 72 -51 206 -95
313 -21 52 -36 100 -33 108 3 9 21 14 48 14 66 0 75 18 78 141 l2 104 -55 1
c-30 1 -61 2 -68 3 -20 2 -36 51 -37 116 0 54 -2 60 -27 75 -25 13 -31 13 -55
0 -50 -28 -40 -101 14 -115 53 -13 81 -58 51 -83 -7 -5 -29 -13 -48 -17 -19
-4 -42 -13 -50 -21 -14 -11 -32 -11 -123 5 -67 11 -114 25 -127 36 -12 11 -28
57 -46 134 -15 64 -35 132 -45 152 -46 93 -129 114 -225 59z m190 -414 l35
-54 68 -7 c290 -30 277 -28 292 -59 19 -41 26 -263 12 -412 -15 -169 -48 -258
-124 -342 -69 -75 -120 -102 -193 -102 -35 0 -65 3 -67 8 -3 4 40 125 95 270
67 176 98 271 94 286 -5 19 -40 38 -196 106 -105 46 -195 90 -199 99 -6 11 9
54 49 139 70 145 81 151 134 68z"/>
<path d="M832 1807 c-15 -17 -124 -601 -120 -640 l3 -32 331 -3 c257 -2 334 1
342 10 6 7 33 154 62 325 39 240 48 317 40 333 -10 19 -20 20 -329 20 -248 0
-321 -3 -329 -13z"/>
<path d="M297 1664 c-4 -4 -7 -13 -7 -21 0 -11 42 -13 228 -11 194 3 227 5
227 18 0 13 -32 15 -221 18 -121 1 -223 -1 -227 -4z"/>
<path d="M160 1476 c0 -8 7 -17 16 -20 20 -8 488 -8 508 0 9 3 16 12 16 20 0
12 -46 14 -270 14 -224 0 -270 -2 -270 -14z"/>
<path d="M67 1314 c-20 -20 31 -24 294 -24 250 0 289 2 289 15 0 13 -39 15
-288 15 -159 0 -292 -3 -295 -6z"/>
<path d="M371 907 c-6 -8 -8 -17 -4 -20 8 -9 568 -9 576 0 4 3 2 12 -4 20 -17
19 -551 19 -568 0z"/>
<path d="M120 730 c0 -20 7 -20 295 -20 288 0 295 0 295 20 0 20 -7 20 -295
20 -288 0 -295 0 -295 -20z"/>
<path d="M2888 537 c-21 -12 -40 -28 -43 -35 -2 -6 7 -33 20 -59 14 -25 25
-57 25 -71 0 -77 -62 -170 -134 -203 -101 -46 -202 -5 -247 99 l-19 43 -51
-28 c-28 -15 -54 -34 -57 -41 -10 -27 28 -119 65 -157 115 -118 304 -104 439
34 28 29 64 78 80 109 25 49 29 68 29 142 0 71 -4 93 -25 135 -14 27 -29 50
-35 52 -5 1 -27 -8 -47 -20z"/>
<path d="M5 529 c-4 -6 -3 -15 2 -20 5 -5 128 -8 294 -7 245 3 284 5 284 18 0
13 -40 15 -287 18 -201 2 -289 -1 -293 -9z"/>
<path d="M832 355 c-54 -117 12 -270 140 -325 216 -93 480 48 513 274 9 59 -4
76 -59 76 -54 0 -66 -13 -66 -73 0 -60 -24 -103 -77 -140 -100 -69 -239 -48
-296 43 -17 28 -22 49 -21 103 l1 67 -62 0 c-56 0 -63 -2 -73 -25z"/>
</g>
</svg>
